# xmcd CD database file
#
# Track frame offsets:
#	150
#	20518
#	36466
#	51773
#	65000
#	80364
#	99616
#	117591
#	135239
#	152185
#	166630
#	181726
#	199682
#
# Disc length: 2887 seconds
#
# Revision: 0
# Processed by: cddbd v1.5.1PL0 Copyright (c) Steve Scherf et al.
# Submitted via: NeoAudio 9.9.9
#
DISCID=a80b450d
DTITLE=get up and dance wkshop 40 - get up and dance wkshop 40
DYEAR=2005
DGENRE=Country
TTITLE0=Hot summer salsa
TTITLE1=Love 2 cha cha
TTITLE2=Irish stew x
TTITLE3=Now l Pray
TTITLE4=Urban Living
TTITLE5=Building Bridges
TTITLE6=The World
TTITLE7=These Boots
TTITLE8=Miller Magic
TTITLE9=Firedance
TTITLE10=Love is in the air
TTITLE11=Don't cha
TTITLE12=Irish stew (country)
EXTD=YEAR: 2005
EXTT0=
EXTT1=
EXTT2=
EXTT3=
EXTT4=
EXTT5=
EXTT6=
EXTT7=
EXTT8=
EXTT9=
EXTT10=
EXTT11=
EXTT12=
PLAYORDER=
